<svg xmlns="http://www.w3.org/2000/svg" viewBox="0 0 800 1000" preserveAspectRatio="xMidYMid slice">
  <defs>
    <linearGradient id="b-sky" x1="0" x2="0" y1="0" y2="1">
      <stop offset="0" stop-color="#f3d79a"></stop>
      <stop offset="0.6" stop-color="#d9c480"></stop>
      <stop offset="1" stop-color="#8a9a5a"></stop>
    </linearGradient>
    <radialGradient id="b-sun" cx="80%" cy="15%" r="35%">
      <stop offset="0" stop-color="#f9e5a8" stop-opacity="1"></stop>
      <stop offset="1" stop-color="#e8a445" stop-opacity="0"></stop>
    </radialGradient>
  </defs>

  <rect width="800" height="1000" fill="url(#b-sky)"></rect>
  <rect width="800" height="1000" fill="url(#b-sun)"></rect>

  
  <path d="M0 540 Q 200 510 400 520 T 800 520 L 800 600 L 0 600 Z" fill="#6a7a3a" opacity="0.6"></path>

  
  <rect y="580" width="800" height="420" fill="#7a4a2a"></rect>

  
  <g>
    <rect x="40" y="680" width="720" height="60" rx="8" fill="#5a3018"></rect>
    <rect x="40" y="680" width="720" height="15" fill="#8a5028"></rect>
    
    <g fill="#4a7a3a">
      <circle cx="100" cy="700" r="22"></circle><circle cx="95" cy="695" r="16" fill="#6a9a58"></circle>
      <circle cx="170" cy="700" r="22"></circle><circle cx="175" cy="695" r="16" fill="#6a9a58"></circle>
      <circle cx="240" cy="700" r="22"></circle><circle cx="235" cy="695" r="16" fill="#6a9a58"></circle>
      <circle cx="310" cy="700" r="22"></circle><circle cx="315" cy="695" r="16" fill="#6a9a58"></circle>
      <circle cx="380" cy="700" r="22"></circle><circle cx="375" cy="695" r="16" fill="#6a9a58"></circle>
      <circle cx="450" cy="700" r="22"></circle><circle cx="455" cy="695" r="16" fill="#6a9a58"></circle>
      <circle cx="520" cy="700" r="22"></circle><circle cx="515" cy="695" r="16" fill="#6a9a58"></circle>
      <circle cx="590" cy="700" r="22"></circle><circle cx="595" cy="695" r="16" fill="#6a9a58"></circle>
      <circle cx="660" cy="700" r="22"></circle><circle cx="655" cy="695" r="16" fill="#6a9a58"></circle>
      <circle cx="730" cy="700" r="22"></circle><circle cx="725" cy="695" r="16" fill="#6a9a58"></circle>
    </g>

    <rect x="40" y="820" width="720" height="60" rx="8" fill="#5a3018"></rect>
    <rect x="40" y="820" width="720" height="15" fill="#8a5028"></rect>
    
    <g>
      <g transform="translate(100 820)">
        <path d="M-6 0 L -4 -18 M 0 0 L 0 -22 M 6 0 L 4 -18" stroke="#4a7a3a" stroke-width="3" fill="none"></path>
      </g>
      <g transform="translate(180 820)">
        <path d="M-6 0 L -4 -18 M 0 0 L 0 -22 M 6 0 L 4 -18" stroke="#4a7a3a" stroke-width="3" fill="none"></path>
      </g>
      <g transform="translate(260 820)">
        <path d="M-6 0 L -4 -18 M 0 0 L 0 -22 M 6 0 L 4 -18" stroke="#4a7a3a" stroke-width="3" fill="none"></path>
      </g>
      <g transform="translate(340 820)">
        <path d="M-6 0 L -4 -18 M 0 0 L 0 -22 M 6 0 L 4 -18" stroke="#4a7a3a" stroke-width="3" fill="none"></path>
      </g>
      <g transform="translate(420 820)">
        <path d="M-6 0 L -4 -18 M 0 0 L 0 -22 M 6 0 L 4 -18" stroke="#4a7a3a" stroke-width="3" fill="none"></path>
      </g>
      <g transform="translate(540 820)">
        <path d="M-6 0 L -4 -18 M 0 0 L 0 -22 M 6 0 L 4 -18" stroke="#4a7a3a" stroke-width="3" fill="none"></path>
      </g>
      <g transform="translate(620 820)">
        <path d="M-6 0 L -4 -18 M 0 0 L 0 -22 M 6 0 L 4 -18" stroke="#4a7a3a" stroke-width="3" fill="none"></path>
      </g>
      <g transform="translate(700 820)">
        <path d="M-6 0 L -4 -18 M 0 0 L 0 -22 M 6 0 L 4 -18" stroke="#4a7a3a" stroke-width="3" fill="none"></path>
      </g>
    </g>
  </g>

  
  <g transform="translate(480 560)">
    
    <path d="M-40 60 Q -50 140 -30 200 L 30 200 Q 50 140 40 60 Z" fill="#4a7a3a"></path>
    
    <path d="M-20 60 L -20 -10 M 20 60 L 20 -10" stroke="#3a5a28" stroke-width="4"></path>
    
    <path d="M-40 80 Q -70 120 -90 160 Q -80 175 -65 165 Q -50 130 -25 110 Z" fill="#c8905d"></path>
    <path d="M40 80 Q 60 130 80 170 Q 70 180 55 175 Q 40 140 25 115 Z" fill="#c8905d"></path>
    
    <circle cx="0" cy="-20" r="42" fill="#a86840"></circle>
    
    <path d="M-35 -35 Q -40 -55 -15 -60 Q 15 -60 35 -35 Q 35 -20 28 -18 L -28 -18 Q -35 -20 -35 -35 Z" fill="#2a1408"></path>
    <circle cx="-32" cy="5" r="6" fill="#2a1408"></circle>
    <circle cx="32" cy="5" r="6" fill="#2a1408"></circle>
    
    <path d="M-8 -5 Q 0 2 8 -5" stroke="#6a3018" stroke-width="2.5" fill="none" stroke-linecap="round"></path>
  </g>

  
  <g transform="translate(370 680)">
    <rect x="-28" y="-20" width="56" height="40" rx="4" fill="#c65a3a"></rect>
    <path d="M28 -10 L 55 -18 L 60 -12 L 60 -5 L 55 -2 L 28 0 Z" fill="#a64a28"></path>
    <circle cx="58" cy="-8" r="3" fill="#5a2818"></circle>
    <path d="M-28 -20 Q -40 -35 -22 -35" stroke="#c65a3a" stroke-width="5" fill="none"></path>
    
    <g stroke="#6a9abf" stroke-width="2.5" stroke-linecap="round" fill="none" opacity="0.8">
      <path d="M62 -5 L 70 10"></path>
      <path d="M58 -2 L 64 14"></path>
      <path d="M65 -8 L 78 6"></path>
      <path d="M55 0 L 58 15"></path>
    </g>
  </g>

  
  <g transform="translate(180 320)" opacity="0.9">
    <path d="M0 0 Q -18 -12 -22 -2 Q -20 10 0 4 Q 20 10 22 -2 Q 18 -12 0 0 Z" fill="#e8a445"></path>
    <path d="M0 0 Q -14 10 -14 20 Q -8 26 0 14 Q 8 26 14 20 Q 14 10 0 0 Z" fill="#c65a3a"></path>
    <line x1="0" y1="-2" x2="0" y2="18" stroke="#2a1408" stroke-width="1.5"></line>
  </g>

  
  <g fill="#fdf5e6" opacity="0.7">
    <circle cx="120" cy="180" r="3"></circle>
    <circle cx="240" cy="120" r="2.5"></circle>
    <circle cx="360" cy="240" r="2"></circle>
    <circle cx="580" cy="180" r="2.5"></circle>
    <circle cx="680" cy="340" r="2"></circle>
  </g>
</svg>