<svg xmlns="http://www.w3.org/2000/svg" viewBox="0 0 2100 900" preserveAspectRatio="xMidYMid slice">
  <defs>
    <linearGradient id="e-bg" x1="0" x2="1" y1="0" y2="1">
      <stop offset="0" stop-color="#e8a445"></stop>
      <stop offset="1" stop-color="#c65a3a"></stop>
    </linearGradient>
    <pattern id="e-grain" width="3" height="3" patternUnits="userSpaceOnUse">
      <circle cx="1" cy="1" r="0.3" fill="#2a1408" opacity="0.12"></circle>
    </pattern>
  </defs>

  <rect width="2100" height="900" fill="url(#e-bg)"></rect>

  
  <g transform="translate(1050 460)">
    
    <g transform="translate(-700 0)">
      <ellipse cx="0" cy="60" rx="180" ry="40" fill="#3a5a28" opacity="0.4"></ellipse>
      <path d="M-180 -40 Q -180 60 0 80 Q 180 60 180 -40 Z" fill="#f6ecd6"></path>
      <path d="M-180 -40 Q -180 60 0 80 Q 180 60 180 -40 L 170 -40 Q 170 55 0 72 Q -170 55 -170 -40 Z" fill="#e0d0a8"></path>
      
      <circle cx="-80" cy="-30" r="36" fill="#4a7a3a"></circle>
      <circle cx="-85" cy="-38" r="28" fill="#6a9a58"></circle>
      <circle cx="-30" cy="-50" r="34" fill="#c65a3a"></circle>
      <circle cx="40" cy="-40" r="38" fill="#e8a445"></circle>
      <circle cx="95" cy="-30" r="32" fill="#8a3a5a"></circle>
      
      <path d="M-130 -20 Q -110 -60 -80 -50 Q -90 -20 -120 -10 Z" fill="#4a7a3a"></path>
      
      <circle cx="0" cy="-70" r="18" fill="#e8a445"></circle>
      <circle cx="60" cy="-72" r="16" fill="#c49158"></circle>
    </g>

    
    <g transform="translate(-200 40)">
      <ellipse cx="0" cy="50" rx="120" ry="28" fill="#3a5a28" opacity="0.4"></ellipse>
      <path d="M-120 -30 Q -120 40 0 60 Q 120 40 120 -30 Z" fill="#f6ecd6"></path>
      <path d="M-120 -30 Q -120 40 0 60 Q 120 40 120 -30 L 112 -30 Q 112 36 0 52 Q -112 36 -112 -30 Z" fill="#e0d0a8"></path>
      
      <g transform="translate(-60 -20)">
        <rect x="-14" y="-60" width="28" height="70" rx="4" fill="#a67540" opacity="0.85"></rect>
        <rect x="-10" y="-72" width="20" height="14" rx="2" fill="#3a2010"></rect>
        <ellipse cx="0" cy="-30" rx="10" ry="20" fill="#e8c466" opacity="0.6"></ellipse>
      </g>
      
      <g transform="translate(10 -10)">
        <rect x="-18" y="-50" width="36" height="50" rx="4" fill="#c65a3a"></rect>
        <rect x="-14" y="-58" width="28" height="10" fill="#efc39a"></rect>
      </g>
      
      <g transform="translate(60 -5)">
        <rect x="-16" y="-40" width="32" height="40" rx="2" fill="#fdf5e6"></rect>
        <rect x="-16" y="-40" width="32" height="8" fill="#e8a445"></rect>
      </g>
    </g>

    
    <g transform="translate(250 40)">
      <ellipse cx="0" cy="50" rx="120" ry="28" fill="#3a5a28" opacity="0.4"></ellipse>
      <path d="M-120 -30 Q -120 40 0 60 Q 120 40 120 -30 Z" fill="#f6ecd6"></path>
      <path d="M-120 -30 Q -120 40 0 60 Q 120 40 120 -30 L 112 -30 Q 112 36 0 52 Q -112 36 -112 -30 Z" fill="#e0d0a8"></path>
      
      <g transform="translate(-50 -15)">
        <rect x="-22" y="-50" width="44" height="50" rx="4" fill="#cfd4d8"></rect>
        <rect x="-22" y="-40" width="44" height="18" fill="#c65a3a"></rect>
        <rect x="-22" y="-20" width="44" height="8" fill="#4a7a3a"></rect>
      </g>
      
      <g transform="translate(20 -10)">
        <ellipse cx="0" cy="-10" rx="36" ry="22" fill="#d9a67a"></ellipse>
        <ellipse cx="0" cy="-16" rx="30" ry="16" fill="#e0b078"></ellipse>
        <line x1="-18" y1="-22" x2="18" y2="-22" stroke="#8a5028" stroke-width="1.5"></line>
        <line x1="-18" y1="-14" x2="18" y2="-14" stroke="#8a5028" stroke-width="1.5"></line>
      </g>
      
      <g transform="translate(70 -5)">
        <path d="M-20 0 L 20 0 L 14 -24 L -10 -24 Z" fill="#e8c466"></path>
        <circle cx="-4" cy="-12" r="3" fill="#c49158"></circle>
        <circle cx="8" cy="-8" r="2.5" fill="#c49158"></circle>
      </g>
    </g>

    
    <g transform="translate(700 60)">
      <ellipse cx="0" cy="40" rx="100" ry="22" fill="#3a5a28" opacity="0.4"></ellipse>
      <path d="M-100 -25 Q -100 30 0 50 Q 100 30 100 -25 Z" fill="#f6ecd6" opacity="0.7"></path>
      <path d="M-100 -25 Q -100 30 0 50 Q 100 30 100 -25 L 92 -25 Q 92 26 0 42 Q -92 26 -92 -25 Z" fill="#e0d0a8" opacity="0.7"></path>
      
      <g transform="translate(-40 -20) rotate(-8)">
        <path d="M-22 -40 L 22 -40 L 26 10 L -26 10 Z" fill="#c65a3a"></path>
        <rect x="-18" y="-34" width="36" height="18" fill="#fdf5e6" opacity="0.7"></rect>
      </g>
      
      <g transform="translate(20 -15)">
        <rect x="-16" y="-48" width="32" height="48" rx="2" fill="#a62030"></rect>
        <rect x="-16" y="-42" width="32" height="14" fill="#fdf5e6"></rect>
        <rect x="-13" y="-38" width="26" height="6" fill="#a62030"></rect>
      </g>
      
      <g stroke="#2a1408" stroke-width="4" fill="none" opacity="0.6">
        <line x1="-90" y1="-30" x2="90" y2="40"></line>
      </g>
    </g>
  </g>

  
  <g fill="#fdf5e6" font-family="Georgia, serif" text-anchor="middle" opacity="0.85">
    <text x="350" y="720" font-size="28" font-style="italic">in natura</text>
    <text x="850" y="720" font-size="24" font-style="italic">moderação</text>
    <text x="1300" y="720" font-size="24" font-style="italic">limitar</text>
    <text x="1750" y="720" font-size="24" font-style="italic">evitar</text>
  </g>
  <g stroke="#fdf5e6" stroke-width="2" opacity="0.5" fill="none">
    <line x1="610" y1="680" x2="610" y2="720"></line>
    <line x1="1060" y1="680" x2="1060" y2="720"></line>
    <line x1="1520" y1="680" x2="1520" y2="720"></line>
  </g>

  <rect width="2100" height="900" fill="url(#e-grain)" opacity="0.4"></rect>
</svg>