<svg xmlns="http://www.w3.org/2000/svg" viewBox="0 0 2100 900" preserveAspectRatio="xMidYMid slice">
  <defs>
    <linearGradient id="p-bg" x1="0" x2="1" y1="0" y2="1">
      <stop offset="0" stop-color="#d9c28a"></stop>
      <stop offset="1" stop-color="#a67540"></stop>
    </linearGradient>
    <pattern id="p-grain" width="3" height="3" patternUnits="userSpaceOnUse">
      <circle cx="1" cy="1" r="0.3" fill="#2a1408" opacity="0.1"></circle>
    </pattern>
  </defs>

  <rect width="2100" height="900" fill="url(#p-bg)"></rect>

  
  <g>
    <rect y="300" width="2100" height="600" fill="#a67540"></rect>
    <g stroke="#8a5028" stroke-width="2" opacity="0.4">
      <line x1="0" y1="420" x2="2100" y2="420"></line>
      <line x1="0" y1="540" x2="2100" y2="540"></line>
      <line x1="0" y1="660" x2="2100" y2="660"></line>
      <line x1="0" y1="780" x2="2100" y2="780"></line>
    </g>
  </g>

  
  <g transform="translate(1050 540)">
    <ellipse cx="0" cy="80" rx="320" ry="60" fill="#2a1408" opacity="0.25"></ellipse>
    
    <path d="M-300 -40 Q -300 80 0 100 Q 300 80 300 -40 Z" fill="#f6ecd6"></path>
    <path d="M-300 -40 Q -300 80 0 100 Q 300 80 300 -40 L 285 -40 Q 285 74 0 92 Q -285 74 -285 -40 Z" fill="#e0d0a8"></path>
    
    <g>
      <circle cx="-160" cy="-10" r="30" fill="#e8a445"></circle>
      <circle cx="-110" cy="-30" r="26" fill="#c65a3a"></circle>
      <circle cx="-60" cy="-15" r="32" fill="#4a7a3a"></circle>
      <circle cx="10" cy="-40" r="28" fill="#8a3a5a"></circle>
      <circle cx="70" cy="-25" r="30" fill="#e8a445"></circle>
      <circle cx="130" cy="-35" r="26" fill="#c65a3a"></circle>
      <circle cx="190" cy="-15" r="30" fill="#4a7a3a"></circle>
      
      <circle cx="-160" cy="-10" r="18" fill="#f3bc63"></circle>
      <circle cx="70" cy="-25" r="18" fill="#f3bc63"></circle>
      <circle cx="-60" cy="-15" r="18" fill="#6a9a58"></circle>
      <circle cx="190" cy="-15" r="18" fill="#6a9a58"></circle>
      
      <path d="M-210 -5 L -170 -40 L -155 -20 Z" fill="#c65a3a"></path>
      <path d="M-210 -5 L -170 -40 L -155 -20 Z" fill="#e08050" transform="scale(0.85) translate(-30 -8)"></path>
      
      <circle cx="-195" cy="-15" r="2" fill="#2a1408"></circle>
      <circle cx="-180" cy="-22" r="2" fill="#2a1408"></circle>
    </g>
  </g>

  
  <g fill="#c8905d">
    
    <g transform="translate(500 540)">
      <path d="M0 0 Q -80 -40 -160 -30 Q -170 -10 -155 10 Q -80 -10 0 30 Z"></path>
      <circle cx="-152" cy="-8" r="16" fill="#c8905d"></circle>
      
      <ellipse cx="-170" cy="-18" rx="5" ry="10" transform="rotate(-20 -170 -18)"></ellipse>
      <ellipse cx="-164" cy="-26" rx="5" ry="12" transform="rotate(-10 -164 -26)"></ellipse>
      <ellipse cx="-154" cy="-30" rx="5" ry="14"></ellipse>
      <ellipse cx="-144" cy="-26" rx="5" ry="12" transform="rotate(10 -144 -26)"></ellipse>
    </g>
  </g>
  <g fill="#d9a680">
    
    <g transform="translate(1600 560)">
      <path d="M0 0 Q 80 -40 160 -30 Q 170 -10 155 10 Q 80 -10 0 30 Z"></path>
      <circle cx="152" cy="-8" r="16"></circle>
      <ellipse cx="170" cy="-18" rx="5" ry="10" transform="rotate(20 170 -18)"></ellipse>
      <ellipse cx="164" cy="-26" rx="5" ry="12" transform="rotate(10 164 -26)"></ellipse>
      <ellipse cx="154" cy="-30" rx="5" ry="14"></ellipse>
      <ellipse cx="144" cy="-26" rx="5" ry="12" transform="rotate(-10 144 -26)"></ellipse>
    </g>
    
    <g transform="translate(1720 520)">
      <rect x="0" y="0" width="180" height="12" rx="3" fill="#8a5028"></rect>
      <ellipse cx="200" cy="6" rx="34" ry="22" fill="#c49158"></ellipse>
      <ellipse cx="200" cy="2" rx="28" ry="16" fill="#e0b078"></ellipse>
    </g>
  </g>
  <g fill="#a86840">
    
    <g transform="translate(950 300)">
      <path d="M0 0 Q -10 60 -30 120 Q -28 150 0 155 Q 28 150 30 120 Q 10 60 0 0 Z"></path>
      <ellipse cx="0" cy="140" rx="26" ry="20"></ellipse>
      
      <path d="M-20 130 Q -30 90 -20 60 Q -10 50 0 50 Q 10 70 0 100 Q -10 130 -20 130 Z" fill="#e8c466"></path>
    </g>
  </g>

  
  <g>
    
    <g transform="translate(300 360)">
      <circle r="38" fill="#e8a445"></circle>
      <circle r="30" fill="#f3bc63"></circle>
      <path d="M-3 -30 Q 0 -40 5 -34 L 4 -28 Z" fill="#4a7a3a"></path>
    </g>
    
    <g transform="translate(1800 340)">
      <path d="M-30 -10 Q -35 20 -10 40 Q 20 45 30 15 Q 35 -15 20 -25 Q 0 -28 -15 -20 Z" fill="#c65a3a"></path>
      <path d="M-20 -5 Q -22 15 -5 25 Q 10 28 18 10 Q 22 -10 12 -18 Q 0 -20 -10 -12 Z" fill="#e08050"></path>
      <path d="M-2 -22 Q 0 -32 8 -28 L 6 -22 Z" fill="#4a7a3a"></path>
    </g>
    
    <g transform="translate(600 780)" fill="#8a3a5a">
      <circle cx="0" cy="0" r="12"></circle>
      <circle cx="-10" cy="14" r="11"></circle>
      <circle cx="10" cy="14" r="11"></circle>
      <circle cx="-20" cy="28" r="10"></circle>
      <circle cx="0" cy="28" r="10"></circle>
      <circle cx="20" cy="28" r="10"></circle>
      <circle cx="-10" cy="42" r="9"></circle>
      <circle cx="10" cy="42" r="9"></circle>
      <circle cx="0" cy="56" r="8"></circle>
      <path d="M-4 -10 Q 0 -20 6 -15" stroke="#4a7a3a" stroke-width="3" fill="none"></path>
    </g>
    
    <g transform="translate(1600 780)">
      <rect x="-80" y="-18" width="160" height="30" rx="4" fill="#d9a67a"></rect>
      <rect x="-80" y="-18" width="160" height="6" fill="#efc39a"></rect>
      <circle cx="-30" cy="0" r="10" fill="#e8a445"></circle>
      <circle cx="-10" cy="-2" r="8" fill="#c65a3a"></circle>
    </g>
  </g>

  <rect width="2100" height="900" fill="url(#p-grain)" opacity="0.5"></rect>
</svg>