<svg xmlns="http://www.w3.org/2000/svg" viewBox="0 0 800 600" preserveAspectRatio="xMidYMid slice">
  <defs>
    <linearGradient id="pp-bg" x1="0" x2="0" y1="0" y2="1">
      <stop offset="0" stop-color="#e8a445"></stop>
      <stop offset="0.6" stop-color="#c49158"></stop>
      <stop offset="1" stop-color="#7a4a2a"></stop>
    </linearGradient>
  </defs>
  <rect width="800" height="600" fill="url(#pp-bg)"></rect>
  
  <rect x="0" y="380" width="800" height="220" fill="#5a3018"></rect>
  <g fill="#4a7a3a">
    <circle cx="80" cy="420" r="30"></circle><circle cx="75" cy="410" r="22" fill="#6a9a58"></circle>
    <circle cx="180" cy="430" r="32"></circle><circle cx="185" cy="420" r="24" fill="#6a9a58"></circle>
    <circle cx="290" cy="440" r="28"></circle><circle cx="285" cy="430" r="20" fill="#6a9a58"></circle>
    <circle cx="520" cy="440" r="30"></circle><circle cx="515" cy="430" r="22" fill="#6a9a58"></circle>
    <circle cx="620" cy="430" r="32"></circle><circle cx="625" cy="420" r="24" fill="#6a9a58"></circle>
    <circle cx="720" cy="440" r="28"></circle><circle cx="715" cy="430" r="20" fill="#6a9a58"></circle>
  </g>
  
  <g transform="translate(400 310)">
    
    <ellipse cx="0" cy="90" rx="60" ry="24" fill="#c65a3a"></ellipse>
    <circle cx="0" cy="20" r="38" fill="#b87850"></circle>
    <path d="M-32 0 Q -40 -26 0 -32 Q 40 -26 32 0 Q 32 16 28 18 L -28 18 Q -32 16 -32 0 Z" fill="#2a1408"></path>
    <circle cx="-12" cy="22" r="3" fill="#1a0e06"></circle>
    <circle cx="12" cy="22" r="3" fill="#1a0e06"></circle>
    <path d="M-8 40 Q 0 48 8 40" stroke="#6a3018" stroke-width="2.5" fill="none"></path>
    
    <g transform="translate(0 105)">
      <path d="M-40 0 L -35 30 L 35 30 L 40 0 Z" fill="#a67540"></path>
      <ellipse cx="0" cy="0" rx="40" ry="8" fill="#c49158"></ellipse>
      <circle cx="-15" cy="-5" r="12" fill="#4a7a3a"></circle>
      <circle cx="10" cy="-8" r="14" fill="#6a9a58"></circle>
      <circle cx="25" cy="-2" r="10" fill="#4a7a3a"></circle>
    </g>
    
    <path d="M-40 80 Q -50 100 -35 115" stroke="#b87850" stroke-width="22" fill="none" stroke-linecap="round"></path>
    <path d="M40 80 Q 50 100 35 115" stroke="#b87850" stroke-width="22" fill="none" stroke-linecap="round"></path>
  </g>
  
  <g transform="translate(170 330)">
    <ellipse cx="0" cy="70" rx="54" ry="22" fill="#4a7a3a"></ellipse>
    <circle cx="0" cy="10" r="34" fill="#c8905d"></circle>
    <path d="M-28 -8 Q -34 -30 0 -34 Q 34 -30 28 -8 Q 28 6 24 8 L -24 8 Q -28 6 -28 -8 Z" fill="#1a0e06"></path>
    
    <path d="M-20 40 Q -40 80 -50 120" stroke="#c8905d" stroke-width="20" fill="none" stroke-linecap="round"></path>
  </g>
  
  <g transform="translate(630 340)">
    <ellipse cx="0" cy="70" rx="54" ry="22" fill="#8a3a5a"></ellipse>
    <circle cx="0" cy="10" r="34" fill="#d9a680"></circle>
    <path d="M-28 -10 Q -34 -32 0 -36 Q 34 -32 28 -10 Q 28 6 24 8 L -24 8 Q -28 6 -28 -10 Z" fill="#5a3018"></path>
    <path d="M24 40 Q 50 70 62 100" stroke="#d9a680" stroke-width="20" fill="none" stroke-linecap="round"></path>
  </g>
  
  <g transform="translate(700 90)">
    <circle r="44" fill="#fde7b8" opacity="0.8"></circle>
    <circle r="28" fill="#f9e5a8"></circle>
  </g>
</svg>