<svg xmlns="http://www.w3.org/2000/svg" viewBox="0 0 1200 800" preserveAspectRatio="xMidYMid slice" role="img" aria-label="Paisagem do Cerrado do DF ao pôr do sol com pequizeiros e buritis">
  <defs>
    <radialGradient id="sun" cx="75%" cy="22%" r="45%">
      <stop offset="0" stop-color="#f9d87a"></stop>
      <stop offset="0.5" stop-color="#eca85a" stop-opacity="0.5"></stop>
      <stop offset="1" stop-color="#d97a3d" stop-opacity="0"></stop>
    </radialGradient>
    <linearGradient id="sky" x1="0" x2="0" y1="0" y2="1">
      <stop offset="0" stop-color="#fde7c4"></stop>
      <stop offset="0.6" stop-color="#f4b87a"></stop>
      <stop offset="1" stop-color="#c97245"></stop>
    </linearGradient>
  </defs>
  <rect width="1200" height="800" fill="url(#sky)"></rect>
  <rect width="1200" height="800" fill="url(#sun)"></rect>
  
  <path d="M0 560 C 200 520 380 540 560 555 C 720 568 900 540 1080 560 C 1140 565 1200 568 1200 565 L 1200 800 L 0 800 Z" fill="#8a4a28" opacity="0.85"></path>
  <path d="M0 620 C 240 595 420 615 640 610 C 860 605 1020 620 1200 612 L 1200 800 L 0 800 Z" fill="#5a2f1c" opacity="0.95"></path>
  
  <g fill="#2f3d1e" opacity="0.9">
    <circle cx="180" cy="520" r="44"></circle><rect x="174" y="520" width="12" height="50"></rect>
    <circle cx="260" cy="540" r="32"></circle><rect x="255" y="540" width="10" height="38"></rect>
    <circle cx="950" cy="510" r="52"></circle><rect x="944" y="510" width="14" height="60"></rect>
    <circle cx="1040" cy="540" r="36"></circle><rect x="1034" y="540" width="10" height="42"></rect>
  </g>
  
  <g stroke="#2f3d1e" stroke-width="4" fill="none" stroke-linecap="round" opacity="0.9">
    <g transform="translate(120 560)">
      <line x1="0" y1="0" x2="0" y2="-140" stroke-width="6"></line>
      <path d="M0 -140 Q -50 -180 -90 -175"></path>
      <path d="M0 -140 Q 50 -180 90 -175"></path>
      <path d="M0 -140 Q -25 -205 -50 -220"></path>
      <path d="M0 -140 Q 25 -205 50 -220"></path>
    </g>
    <g transform="translate(1100 560)">
      <line x1="0" y1="0" x2="0" y2="-160" stroke-width="6"></line>
      <path d="M0 -160 Q -55 -200 -100 -195"></path>
      <path d="M0 -160 Q 55 -200 100 -195"></path>
      <path d="M0 -160 Q -30 -230 -55 -245"></path>
      <path d="M0 -160 Q 30 -230 55 -245"></path>
    </g>
  </g>
  
  <g fill="#e6a93a" stroke="#8a5a1a" stroke-width="1.5">
    <circle cx="930" cy="500" r="6"></circle>
    <circle cx="960" cy="510" r="6"></circle>
    <circle cx="975" cy="495" r="6"></circle>
    <circle cx="200" cy="515" r="5"></circle>
    <circle cx="175" cy="530" r="5"></circle>
  </g>
</svg>