<svg xmlns="http://www.w3.org/2000/svg" viewBox="0 0 800 1000" preserveAspectRatio="xMidYMid slice">
  <defs>
    <linearGradient id="n-bg" x1="0" x2="0" y1="0" y2="1">
      <stop offset="0" stop-color="#f6ecd6"></stop>
      <stop offset="1" stop-color="#e0c89a"></stop>
    </linearGradient>
  </defs>

  <rect width="800" height="1000" fill="url(#n-bg)"></rect>

  
  <rect y="0" width="800" height="420" fill="#ead9b8"></rect>
  <g stroke="#d9c28a" stroke-width="1.5" opacity="0.7">
    <line x1="0" y1="80" x2="800" y2="80"></line>
    <line x1="0" y1="160" x2="800" y2="160"></line>
    <line x1="0" y1="240" x2="800" y2="240"></line>
    <line x1="0" y1="320" x2="800" y2="320"></line>
    <line x1="100" y1="0" x2="100" y2="420"></line>
    <line x1="200" y1="0" x2="200" y2="420"></line>
    <line x1="300" y1="0" x2="300" y2="420"></line>
    <line x1="400" y1="0" x2="400" y2="420"></line>
    <line x1="500" y1="0" x2="500" y2="420"></line>
    <line x1="600" y1="0" x2="600" y2="420"></line>
    <line x1="700" y1="0" x2="700" y2="420"></line>
  </g>

  
  <g stroke="#5a3018" stroke-width="3" fill="none">
    <line x1="100" y1="40" x2="700" y2="40"></line>
  </g>
  <g>
    
    <g transform="translate(180 40)">
      <line x1="0" y1="0" x2="0" y2="80" stroke="#8a5028" stroke-width="4"></line>
      <ellipse cx="0" cy="90" rx="16" ry="10" fill="#c49158"></ellipse>
    </g>
    
    <g transform="translate(280 40)" stroke="#8a9aaa" stroke-width="2" fill="none">
      <line x1="0" y1="0" x2="0" y2="60" stroke="#8a5028" stroke-width="4"></line>
      <path d="M0 60 Q -10 75 -8 95"></path>
      <path d="M0 60 Q 10 75 8 95"></path>
      <path d="M0 60 Q -5 80 0 98"></path>
      <path d="M0 60 Q 5 80 0 98"></path>
    </g>
    
    <g transform="translate(420 40)">
      <line x1="0" y1="0" x2="0" y2="40" stroke="#8a5028" stroke-width="4"></line>
      <rect x="-30" y="40" width="60" height="40" rx="4" fill="#2a2018"></rect>
      <rect x="-30" y="40" width="60" height="8" fill="#4a3828"></rect>
    </g>
    
    <g transform="translate(560 40)">
      <line x1="0" y1="0" x2="0" y2="70" stroke="#8a5028" stroke-width="4"></line>
      <ellipse cx="0" cy="84" rx="14" ry="20" fill="#c49158"></ellipse>
    </g>
  </g>

  
  <rect y="420" width="800" height="80" fill="#c49158"></rect>
  <rect y="420" width="800" height="12" fill="#d9a67a"></rect>

  
  <g transform="translate(150 440)">
    
    <path d="M-60 30 L -55 70 L 55 70 L 60 30 Z" fill="#a67540"></path>
    <rect x="-60" y="26" width="120" height="8" fill="#c49158"></rect>
    
    <circle cx="-30" cy="10" r="22" fill="#c65a3a"></circle>
    <circle cx="0" cy="0" r="24" fill="#4a7a3a"></circle>
    <circle cx="30" cy="12" r="20" fill="#e8a445"></circle>
    <circle cx="-10" cy="20" r="18" fill="#8a3a5a"></circle>
    <circle cx="20" cy="25" r="16" fill="#c65a3a"></circle>
    
    <circle cx="15" cy="-5" r="12" fill="#e8a445"></circle>
    <circle cx="-22" cy="-8" r="10" fill="#e8a445"></circle>
  </g>

  
  <g transform="translate(620 460)">
    <rect x="-80" y="-10" width="160" height="30" rx="4" fill="#d9a67a"></rect>
    <rect x="-80" y="-10" width="160" height="6" fill="#efc39a"></rect>
    
    <circle cx="-50" cy="0" r="8" fill="#e8a445"></circle>
    <circle cx="-50" cy="0" r="4" fill="#f3bc63"></circle>
    <circle cx="-32" cy="5" r="8" fill="#e8a445"></circle>
    <circle cx="-32" cy="5" r="4" fill="#f3bc63"></circle>
    
    <ellipse cx="0" cy="0" rx="14" ry="6" fill="#4a7a3a" transform="rotate(-15 0 0)"></ellipse>
    <ellipse cx="20" cy="4" rx="12" ry="6" fill="#6a9a58" transform="rotate(10 20 4)"></ellipse>
    
    <path d="M40 -8 L 68 -6 L 70 6 L 42 4 Z" fill="#cfd4d8"></path>
    <rect x="68" y="-6" width="12" height="12" rx="2" fill="#3a2818"></rect>
  </g>

  
  <g transform="translate(400 380)">
    
    <path d="M-90 140 Q -100 260 -80 420 L 80 420 Q 100 260 90 140 Z" fill="#fdf5e6"></path>
    
    <path d="M-40 140 L -20 260 L 0 140 Z" fill="#e0d0a8" opacity="0.6"></path>
    <path d="M40 140 L 20 260 L 0 140 Z" fill="#e0d0a8" opacity="0.6"></path>
    
    <rect x="18" y="220" width="40" height="18" rx="2" fill="#c65a3a"></rect>
    
    <rect x="-18" y="110" width="36" height="40" fill="#a86840"></rect>
    
    <circle cx="0" cy="80" r="54" fill="#b87850"></circle>
    
    <path d="M-48 55 Q -55 20 -10 14 Q 36 14 48 40 Q 50 58 42 62 L -42 62 Q -48 58 -48 55 Z" fill="#3a2010"></path>
    
    <circle cx="-16" cy="84" r="3" fill="#1a0e06"></circle>
    <circle cx="16" cy="84" r="3" fill="#1a0e06"></circle>
    
    <path d="M-12 102 Q 0 114 12 102" stroke="#6a3018" stroke-width="3" fill="none" stroke-linecap="round"></path>
    
    <g>
      <path d="M-90 155 Q -130 230 -140 320 Q -122 335 -108 315 Q -98 240 -70 200 Z" fill="#fdf5e6"></path>
      <path d="M90 155 Q 130 230 140 320 Q 122 335 108 315 Q 98 240 70 200 Z" fill="#fdf5e6"></path>
      
      <ellipse cx="-122" cy="328" rx="16" ry="18" fill="#b87850"></ellipse>
      <ellipse cx="122" cy="328" rx="16" ry="18" fill="#b87850"></ellipse>
    </g>
  </g>

  
  <g>
    <g transform="translate(280 820)">
      <ellipse cx="0" cy="60" rx="42" ry="20" fill="#c65a3a"></ellipse>
      <circle cx="0" cy="20" r="28" fill="#c8905d"></circle>
      <path d="M-24 0 Q -28 -18 0 -22 Q 28 -18 24 0 Q 24 10 20 12 L -20 12 Q -24 10 -24 0 Z" fill="#2a1408"></path>
      
      <path d="M-8 24 Q 0 30 8 24" stroke="#6a3018" stroke-width="2" fill="none" stroke-linecap="round"></path>
    </g>
    <g transform="translate(510 830)">
      <ellipse cx="0" cy="60" rx="42" ry="20" fill="#4a7a3a"></ellipse>
      <circle cx="0" cy="20" r="28" fill="#d9a680"></circle>
      <path d="M-24 0 Q -28 -16 0 -22 Q 28 -16 24 0 Q 24 10 20 12 L -20 12 Q -24 10 -24 0 Z" fill="#5a3018"></path>
      <path d="M-8 24 Q 0 30 8 24" stroke="#6a3018" stroke-width="2" fill="none" stroke-linecap="round"></path>
    </g>
  </g>
</svg>