<svg xmlns="http://www.w3.org/2000/svg" viewBox="0 0 800 600" preserveAspectRatio="xMidYMid slice">
  <defs>
    <linearGradient id="bb-bg" x1="0" x2="1" y1="0" y2="1">
      <stop offset="0" stop-color="#f6d28a"></stop>
      <stop offset="1" stop-color="#d97538"></stop>
    </linearGradient>
  </defs>
  <rect width="800" height="600" fill="url(#bb-bg)"></rect>
  
  <g transform="translate(400 340)">
    <ellipse cx="0" cy="30" rx="260" ry="30" fill="#2a1408" opacity="0.2"></ellipse>
    <rect x="-260" y="-100" width="520" height="200" rx="20" fill="#f6ecd6"></rect>
    <rect x="-260" y="-100" width="520" height="200" rx="20" fill="none" stroke="#c49158" stroke-width="4"></rect>
    
    <g>
      <circle cx="-160" cy="0" r="22" fill="#e8c466"></circle>
      <circle cx="-120" cy="-20" r="20" fill="#f3d57a"></circle>
      <circle cx="-140" cy="40" r="24" fill="#e8c466"></circle>
      <circle cx="-90" cy="30" r="18" fill="#f3d57a"></circle>
    </g>
    <g>
      <path d="M-30 -40 Q -10 -50 20 -40 Q 30 -20 20 10 Q 0 20 -20 10 Q -40 -10 -30 -40 Z" fill="#6a9a58"></path>
      <path d="M-20 -30 Q -5 -38 15 -30 Q 22 -15 15 5 Q 0 12 -15 5 Q -28 -10 -20 -30 Z" fill="#8ab880"></path>
      <circle cx="-5" cy="-10" r="8" fill="#5a3018"></circle>
    </g>
    <g>
      <circle cx="120" cy="-10" r="18" fill="#e8a445"></circle>
      <circle cx="120" cy="-10" r="10" fill="#f3bc63"></circle>
      <circle cx="160" cy="20" r="16" fill="#e8a445"></circle>
      <circle cx="160" cy="20" r="8" fill="#f3bc63"></circle>
      <circle cx="190" cy="-20" r="16" fill="#e8a445"></circle>
      <circle cx="190" cy="-20" r="8" fill="#f3bc63"></circle>
    </g>
  </g>
  
  <g transform="translate(180 90)" fill="#d9a680">
    <path d="M0 0 Q -10 80 -20 150 Q -18 180 10 185 Q 38 180 36 150 Q 28 80 20 0 Z"></path>
    <ellipse cx="10" cy="170" rx="30" ry="22"></ellipse>
    
    <ellipse cx="-10" cy="190" rx="8" ry="14"></ellipse>
    <ellipse cx="5" cy="196" rx="8" ry="16"></ellipse>
    <ellipse cx="22" cy="196" rx="8" ry="16"></ellipse>
    <ellipse cx="35" cy="188" rx="8" ry="14"></ellipse>
  </g>
  
  <g fill="#fdf5e6" opacity="0.7">
    <circle cx="600" cy="100" r="4"></circle>
    <circle cx="680" cy="200" r="3"></circle>
    <circle cx="520" cy="160" r="3"></circle>
    <circle cx="90" cy="280" r="3"></circle>
  </g>
</svg>